<?xml version="1.0" standalone="no"?>
<!DOCTYPE svg PUBLIC "-//W3C//DTD SVG 20010904//EN"
 "http://www.w3.org/TR/2001/REC-SVG-20010904/DTD/svg10.dtd">
<svg version="1.0" xmlns="http://www.w3.org/2000/svg"
 width="321.000000pt" height="244.000000pt" viewBox="0 0 321.000000 244.000000"
 preserveAspectRatio="xMidYMid meet">

<g transform="translate(0.000000,244.000000) scale(0.100000,-0.100000)"
fill="#000000" stroke="none">
<path d="M1581 1737 c28 -21 59 -36 59 -29 0 5 -11 14 -25 20 -24 11 -44 16
-34 9z"/>
<path d="M1415 1710 c-3 -6 1 -7 9 -4 18 7 21 14 7 14 -6 0 -13 -4 -16 -10z"/>
<path d="M1576 1672 c-3 -6 -1 -14 5 -17 15 -10 25 3 12 16 -7 7 -13 7 -17 1z"/>
<path d="M1820 1255 l0 -75 38 0 c58 0 82 22 82 75 0 53 -24 75 -82 75 l-38 0
0 -75z"/>
<path d="M2560 1270 l0 -60 43 0 c55 0 87 22 87 60 0 38 -32 60 -87 60 l-43 0
0 -60z"/>
<path d="M892 1280 c-26 -69 -26 -70 12 -70 41 0 41 1 16 55 -18 40 -18 40
-28 15z"/>
<path d="M2242 1280 c-26 -69 -26 -70 12 -70 41 0 41 1 16 55 -18 40 -18 40
-28 15z"/>
<path d="M1345 880 c-3 -5 -1 -10 4 -10 6 0 11 5 11 10 0 6 -2 10 -4 10 -3 0
-8 -4 -11 -10z"/>
</g>
</svg>
