<?xml version="1.0" standalone="no"?>
<!DOCTYPE svg PUBLIC "-//W3C//DTD SVG 20010904//EN"
 "http://www.w3.org/TR/2001/REC-SVG-20010904/DTD/svg10.dtd">
<svg version="1.0" xmlns="http://www.w3.org/2000/svg"
 width="60.000000pt" height="60.000000pt" viewBox="0 0 60.000000 60.000000"
 preserveAspectRatio="xMidYMid meet">

<g transform="translate(0.000000,60.000000) scale(0.100000,-0.100000)"
fill="#000000" stroke="none">
<path d="M275 427 c-169 -74 -211 -96 -213 -113 -4 -25 9 -36 70 -59 45 -17
48 -20 68 -81 25 -74 45 -82 91 -38 l28 27 49 -42 c52 -43 73 -49 90 -28 5 6
27 99 47 205 39 200 38 223 -4 221 -9 0 -110 -42 -226 -92z m219 26 c-2 -10
-15 -79 -29 -153 -40 -206 -30 -189 -84 -136 -26 25 -51 46 -57 46 -6 0 -19
-9 -29 -20 -26 -29 -38 -25 -30 13 5 21 32 57 83 109 42 43 74 79 71 82 -2 3
-54 -24 -114 -59 -108 -64 -109 -64 -144 -49 -38 16 -47 22 -40 28 8 8 354
156 366 156 6 0 9 -8 7 -17z"/>
</g>
</svg>
